<svg width="20" height="20" viewBox="0 0 20 20" fill="none" xmlns="http://www.w3.org/2000/svg">
<path d="M13.7495 0L6.24951 0C2.79826 0 -0.000488281 2.79875 -0.000488281 6.25L-0.000488281 13.75C-0.000488281 17.2013 2.79826 20 6.24951 20L13.7495 20C17.2008 20 19.9995 17.2013 19.9995 13.75L19.9995 6.25C19.9995 2.79875 17.2008 0 13.7495 0ZM18.1245 13.75C18.1245 16.1625 16.162 18.125 13.7495 18.125L6.24951 18.125C3.83701 18.125 1.87451 16.1625 1.87451 13.75L1.87451 6.25C1.87451 3.8375 3.83701 1.875 6.24951 1.875L13.7495 1.875C16.162 1.875 18.1245 3.8375 18.1245 6.25L18.1245 13.75Z" fill="black"/>
</svg>
