<?xml version="1.0" standalone="no"?>
<!DOCTYPE svg PUBLIC "-//W3C//DTD SVG 20010904//EN"
 "http://www.w3.org/TR/2001/REC-SVG-20010904/DTD/svg10.dtd">
<svg version="1.0" xmlns="http://www.w3.org/2000/svg"
 width="2083.000000pt" height="2083.000000pt" viewBox="0 0 2083.000000 2083.000000"
 preserveAspectRatio="xMidYMid meet">

<g transform="translate(0.000000,2083.000000) scale(0.100000,-0.100000)"
fill="#000000" stroke="none">
<path d="M14000 12439 c-2269 -16 -2542 -19 -2910 -34 -554 -21 -622 -30 -749
-97 -264 -139 -531 -389 -768 -718 -54 -76 -209 -322 -332 -528 -42 -70 -44
-75 -34 -115 10 -39 74 -251 138 -457 15 -47 47 -152 71 -235 97 -325 139
-425 179 -425 7 0 23 14 35 30 35 49 69 150 185 555 8 28 40 136 71 240 31
105 63 215 71 245 8 30 19 61 25 68 13 15 523 18 533 3 4 -8 127 -420 168
-566 8 -27 49 -169 82 -280 34 -113 83 -243 104 -272 27 -37 55 -29 83 25 32
59 52 117 123 357 66 223 176 578 208 673 l22 67 145 3 c188 4 333 -13 367
-42 l25 -21 -37 -100 c-20 -55 -47 -129 -60 -165 -13 -36 -60 -166 -105 -290
-45 -124 -93 -254 -105 -290 -13 -36 -40 -110 -60 -165 -20 -55 -50 -136 -65
-180 -39 -110 -110 -308 -160 -445 -23 -63 -44 -124 -47 -135 -13 -45 -12 -45
-303 -45 -210 0 -280 3 -287 13 -6 6 -26 62 -45 122 -49 150 -212 655 -256
790 -19 61 -39 114 -43 119 -36 41 -159 -260 -294 -719 -15 -49 -30 -101 -35
-115 -4 -14 -21 -67 -36 -118 l-28 -92 -294 2 -294 3 -13 35 c-20 53 -57 157
-130 360 -176 492 -280 740 -310 740 -39 0 -147 -133 -260 -320 -70 -115 -215
-334 -248 -374 -14 -17 -29 -26 -35 -22 -39 24 -466 694 -460 722 2 8 145 159
318 336 l315 323 -210 3 c-240 3 -345 -7 -423 -43 -64 -29 -165 -109 -242
-192 -30 -32 -113 -120 -184 -196 -70 -75 -132 -137 -137 -137 -5 0 -9 265 -9
623 0 342 -4 628 -8 635 -7 9 -77 12 -318 10 l-309 -3 -3 -1249 c-2 -993 0
-1251 10 -1258 7 -4 149 -8 314 -8 266 0 303 2 308 16 3 9 6 95 6 192 0 246
31 374 102 425 24 18 30 18 58 7 41 -17 100 -96 190 -255 160 -283 237 -366
356 -381 27 -4 57 -11 66 -16 29 -15 49 -66 55 -141 6 -86 42 -189 92 -262 20
-29 85 -106 144 -169 l109 -116 3196 0 c3960 0 5820 13 6315 45 335 21 451 45
596 123 127 68 325 208 425 301 122 114 383 507 789 1186 210 353 176 294 357
610 117 205 125 218 170 300 18 33 36 65 40 70 42 57 370 697 415 810 62 154
21 255 -198 487 l-120 128 -2711 -2 c-1491 -1 -3159 -5 -3706 -9z m382 -669
c102 -68 247 -243 248 -300 0 -29 -58 -135 -99 -182 -64 -73 -95 -83 -236 -83
-108 0 -125 3 -170 25 -62 31 -82 64 -96 166 -27 191 10 274 162 366 80 49
127 51 191 8z m-1912 -622 c0 -247 2 -448 6 -448 4 0 68 37 143 82 196 117
211 125 292 152 170 56 323 41 504 -51 102 -52 150 -88 197 -146 106 -133 156
-328 177 -691 12 -189 15 -904 5 -930 -5 -14 -42 -16 -310 -16 -235 0 -306 3
-309 13 -2 6 -6 235 -8 507 -4 465 -5 500 -25 572 -25 92 -41 124 -78 162 -53
52 -80 61 -199 61 -94 0 -116 -3 -150 -22 -55 -29 -121 -103 -151 -167 -29
-64 -61 -189 -69 -276 -4 -36 -9 -76 -12 -90 -3 -14 -8 -190 -10 -392 l-5
-368 -274 0 -274 0 0 1250 0 1250 275 -2 276 -3 -1 -447z m3072 5 c2 -175 7
-244 16 -261 22 -39 69 -51 223 -57 230 -11 243 -19 243 -170 0 -103 -14 -137
-62 -157 -15 -6 -116 -13 -225 -16 l-199 -5 5 -391 c3 -215 8 -403 12 -418 4
-15 22 -44 40 -65 l33 -38 119 -1 c94 0 125 -4 148 -18 90 -53 153 -250 111
-349 -32 -77 -130 -100 -416 -100 -163 0 -218 3 -269 17 -208 56 -294 180
-320 462 -5 55 -12 232 -16 394 -8 407 -18 442 -134 490 -71 29 -106 58 -127
108 -18 44 -18 130 1 175 18 42 77 94 119 103 47 9 96 52 117 99 15 33 21 79
26 195 7 175 18 208 73 227 23 8 113 12 257 12 l221 1 4 -237z m-982 -1113 l0
-940 -275 0 -275 0 0 933 c0 514 3 937 7 940 3 4 127 7 275 7 l268 0 0 -940z
m2507 919 c182 -20 385 -98 505 -193 110 -88 211 -237 262 -388 25 -76 86
-418 86 -486 l0 -31 -607 -3 c-637 -3 -660 -5 -683 -47 -6 -12 -2 -32 14 -67
60 -129 170 -196 347 -210 100 -9 190 8 318 58 127 50 190 55 241 18 46 -33
164 -150 179 -178 18 -34 8 -52 -68 -125 -106 -102 -230 -150 -473 -182 -304
-40 -580 1 -774 116 -88 52 -214 180 -263 269 -151 274 -160 672 -20 953 136
275 402 463 704 497 104 11 127 11 232 -1z m1238 -1333 c51 -22 111 -90 135
-154 55 -146 -15 -318 -145 -353 -60 -16 -152 -7 -215 22 -163 76 -218 256
-116 375 33 38 128 97 185 114 42 13 119 11 156 -4z"/>
<path d="M16869 10536 c-97 -21 -153 -71 -216 -193 -65 -125 -48 -132 321
-132 311 -1 346 4 346 53 0 20 -17 56 -48 101 -60 90 -141 146 -241 169 -81
18 -87 18 -162 2z"/>
<path d="M12 11598 c-18 -18 -17 -2467 1 -2492 12 -17 29 -18 213 -13 286 6
344 27 344 122 0 77 22 79 120 11 104 -72 205 -104 400 -127 159 -19 328 7
432 65 108 61 342 299 385 393 41 89 53 184 53 426 0 234 -8 313 -41 414 -53
161 -300 418 -484 502 -85 39 -136 51 -245 58 -124 7 -225 -15 -350 -74 -120
-58 -244 -112 -247 -109 -12 12 -16 95 -22 441 l-6 390 -270 3 c-202 2 -274
-1 -283 -10z m1131 -1146 c141 -65 258 -265 257 -441 -1 -156 -284 -491 -415
-491 -104 0 -317 218 -391 400 -82 203 72 492 296 555 77 21 174 12 253 -23z"/>
<path d="M2172 11598 c-18 -18 -18 -2467 1 -2491 11 -16 37 -17 282 -15 l270
3 0 1255 0 1255 -270 3 c-202 2 -274 -1 -283 -10z"/>
<path d="M3610 10953 c-191 -20 -445 -100 -537 -169 -81 -61 -48 -214 58 -273
74 -42 147 -52 459 -60 162 -5 302 -11 310 -14 8 -3 27 -8 42 -11 14 -3 40
-18 57 -32 25 -21 31 -34 31 -64 0 -81 -75 -104 -440 -136 -204 -18 -307 -40
-408 -90 -129 -63 -249 -196 -291 -322 -25 -72 -28 -200 -7 -277 57 -213 248
-363 520 -406 130 -20 382 14 528 73 80 32 106 32 115 -2 8 -31 54 -50 160
-66 104 -15 370 -19 391 -5 22 13 11 1307 -12 1411 -23 110 -56 169 -136 244
-101 95 -204 141 -420 187 -53 11 -348 20 -420 12z m349 -1109 c84 -25 110
-86 72 -169 -60 -133 -291 -221 -442 -170 -47 16 -109 69 -141 120 -36 59 -18
162 34 194 61 38 378 55 477 25z"/>
<path d="M5485 10901 c-232 -24 -351 -67 -453 -165 -190 -180 -285 -441 -285
-781 -1 -286 31 -353 290 -606 132 -129 191 -176 268 -210 54 -24 215 -49 316
-49 78 0 257 21 344 40 154 33 314 106 397 180 89 80 111 154 64 219 -64 87
-175 150 -276 158 -60 5 -68 3 -96 -20 -130 -109 -345 -114 -535 -11 -67 37
-114 92 -158 183 -35 74 -36 79 -36 196 0 116 1 122 34 190 106 217 334 302
534 199 159 -82 162 -83 218 -84 53 0 63 4 149 61 51 33 116 74 146 90 85 48
71 92 -72 228 -102 98 -190 149 -294 171 -69 14 -447 21 -555 11z"/>
</g>
</svg>
